<svg xmlns="http://www.w3.org/2000/svg" xmlns:xlink="http://www.w3.org/1999/xlink" width="512" zoomAndPan="magnify" viewBox="0 0 384 383.999986" height="512" preserveAspectRatio="xMidYMid meet" version="1.0"><defs><clipPath id="00836695af"><path d="M 25 15 L 233 15 L 233 158 L 25 158 Z M 25 15 " clip-rule="nonzero"/></clipPath><clipPath id="6ab1425a75"><path d="M 155.871094 -16.96875 L 232.144531 59.304688 L 101.644531 189.804688 L 25.371094 113.53125 Z M 155.871094 -16.96875 " clip-rule="nonzero"/></clipPath><clipPath id="32e8a44bed"><path d="M 188.347656 15.507812 L 232.144531 59.304688 L 69.402344 157.089844 L 25.605469 113.296875 Z M 188.347656 15.507812 " clip-rule="nonzero"/></clipPath><clipPath id="984a2ee072"><path d="M 0.441406 0.359375 L 207.320312 0.359375 L 207.320312 142.199219 L 0.441406 142.199219 Z M 0.441406 0.359375 " clip-rule="nonzero"/></clipPath><clipPath id="537807da94"><path d="M 130.871094 -31.96875 L 207.144531 44.304688 L 76.644531 174.804688 L 0.371094 98.53125 Z M 130.871094 -31.96875 " clip-rule="nonzero"/></clipPath><clipPath id="2ed8762908"><path d="M 163.347656 0.507812 L 207.144531 44.304688 L 44.402344 142.089844 L 0.605469 98.296875 Z M 163.347656 0.507812 " clip-rule="nonzero"/></clipPath><clipPath id="7617467833"><rect x="0" width="208" y="0" height="143"/></clipPath><clipPath id="a43b7afe38"><path d="M 25.609375 113.457031 L 91.011719 113.457031 L 91.011719 367.027344 L 25.609375 367.027344 Z M 25.609375 113.457031 " clip-rule="nonzero"/></clipPath><clipPath id="8fc500cf74"><path d="M 0.609375 0.457031 L 66.011719 0.457031 L 66.011719 254.027344 L 0.609375 254.027344 Z M 0.609375 0.457031 " clip-rule="nonzero"/></clipPath><clipPath id="9a0d6de645"><rect x="0" width="67" y="0" height="255"/></clipPath><clipPath id="29cf86f7e7"><path d="M 91.011719 301.625 L 344.585938 301.625 L 344.585938 367.027344 L 91.011719 367.027344 Z M 91.011719 301.625 " clip-rule="nonzero"/></clipPath><clipPath id="5f2017bc58"><path d="M 0.0117188 0.625 L 253.585938 0.625 L 253.585938 66.027344 L 0.0117188 66.027344 Z M 0.0117188 0.625 " clip-rule="nonzero"/></clipPath><clipPath id="3f16720597"><rect x="0" width="254" y="0" height="67"/></clipPath><clipPath id="05c567e79a"><path d="M 174.769531 174.839844 L 326.234375 174.839844 L 326.234375 240.242188 L 174.769531 240.242188 Z M 174.769531 174.839844 " clip-rule="nonzero"/></clipPath><clipPath id="421a8bd061"><path d="M 0.769531 0.839844 L 152.234375 0.839844 L 152.234375 66.242188 L 0.769531 66.242188 Z M 0.769531 0.839844 " clip-rule="nonzero"/></clipPath><clipPath id="9b698118b6"><rect x="0" width="153" y="0" height="67"/></clipPath><clipPath id="43ed455644"><path d="M 317.972656 32.648438 L 358.390625 32.648438 L 358.390625 73.066406 L 317.972656 73.066406 Z M 317.972656 32.648438 " clip-rule="nonzero"/></clipPath><clipPath id="86304efc0b"><path d="M 0.972656 0.648438 L 41.390625 0.648438 L 41.390625 41.066406 L 0.972656 41.066406 Z M 0.972656 0.648438 " clip-rule="nonzero"/></clipPath><clipPath id="4c12e22804"><rect x="0" width="42" y="0" height="42"/></clipPath><clipPath id="1e6dd3b6bb"><path d="M 277.550781 72.988281 L 317.972656 72.988281 L 317.972656 113.410156 L 277.550781 113.410156 Z M 277.550781 72.988281 " clip-rule="nonzero"/></clipPath><clipPath id="aab42681a4"><path d="M 0.550781 0.988281 L 40.972656 0.988281 L 40.972656 41.410156 L 0.550781 41.410156 Z M 0.550781 0.988281 " clip-rule="nonzero"/></clipPath><clipPath id="f2dbfeef2b"><rect x="0" width="41" y="0" height="42"/></clipPath><clipPath id="59de8a3927"><path d="M 317.972656 113.457031 L 358.390625 113.457031 L 358.390625 153.875 L 317.972656 153.875 Z M 317.972656 113.457031 " clip-rule="nonzero"/></clipPath><clipPath id="95d07ecfc4"><path d="M 0.972656 0.457031 L 41.390625 0.457031 L 41.390625 40.875 L 0.972656 40.875 Z M 0.972656 0.457031 " clip-rule="nonzero"/></clipPath><clipPath id="84116d4213"><rect x="0" width="42" y="0" height="41"/></clipPath></defs><rect x="-38.4" width="460.8" fill="#ffffff" y="-38.399999" height="460.799983" fill-opacity="1"/><rect x="-38.4" width="460.8" fill="#ffffff" y="-38.399999" height="460.799983" fill-opacity="1"/><g clip-path="url(#00836695af)"><g clip-path="url(#6ab1425a75)"><g clip-path="url(#32e8a44bed)"><g transform="matrix(1, 0, 0, 1, 25, 15)"><g clip-path="url(#7617467833)"><g clip-path="url(#984a2ee072)"><g clip-path="url(#537807da94)"><g clip-path="url(#2ed8762908)"><path fill="#00bf63" d="M 130.871094 -31.96875 L 207.144531 44.304688 L 76.941406 174.507812 L 0.667969 98.234375 Z M 130.871094 -31.96875 " fill-opacity="1" fill-rule="nonzero"/></g></g></g></g></g></g></g></g><g clip-path="url(#a43b7afe38)"><g transform="matrix(1, 0, 0, 1, 25, 113)"><g clip-path="url(#9a0d6de645)"><g clip-path="url(#8fc500cf74)"><path fill="#00bf63" d="M 0.609375 0.457031 L 66.011719 0.457031 L 66.011719 254.144531 L 0.609375 254.144531 Z M 0.609375 0.457031 " fill-opacity="1" fill-rule="nonzero"/></g></g></g></g><g clip-path="url(#29cf86f7e7)"><g transform="matrix(1, 0, 0, 1, 91, 301)"><g clip-path="url(#3f16720597)"><g clip-path="url(#5f2017bc58)"><path fill="#00bf63" d="M 0.0117188 66.027344 L 0.0117188 0.625 L 253.703125 0.625 L 253.703125 66.027344 Z M 0.0117188 66.027344 " fill-opacity="1" fill-rule="nonzero"/></g></g></g></g><g clip-path="url(#05c567e79a)"><g transform="matrix(1, 0, 0, 1, 174, 174)"><g clip-path="url(#9b698118b6)"><g clip-path="url(#421a8bd061)"><path fill="#00bf63" d="M 0.769531 66.242188 L 0.769531 0.839844 L 152.269531 0.839844 L 152.269531 66.242188 Z M 0.769531 66.242188 " fill-opacity="1" fill-rule="nonzero"/></g></g></g></g><g clip-path="url(#43ed455644)"><g transform="matrix(1, 0, 0, 1, 317, 32)"><g clip-path="url(#4c12e22804)"><g clip-path="url(#86304efc0b)"><path fill="#00bf63" d="M 0.972656 0.648438 L 41.390625 0.648438 L 41.390625 41.066406 L 0.972656 41.066406 Z M 0.972656 0.648438 " fill-opacity="1" fill-rule="nonzero"/></g></g></g></g><g clip-path="url(#1e6dd3b6bb)"><g transform="matrix(1, 0, 0, 1, 277, 72)"><g clip-path="url(#f2dbfeef2b)"><g clip-path="url(#aab42681a4)"><path fill="#00bf63" d="M 0.550781 0.988281 L 40.972656 0.988281 L 40.972656 41.410156 L 0.550781 41.410156 Z M 0.550781 0.988281 " fill-opacity="1" fill-rule="nonzero"/></g></g></g></g><g clip-path="url(#59de8a3927)"><g transform="matrix(1, 0, 0, 1, 317, 113)"><g clip-path="url(#84116d4213)"><g clip-path="url(#95d07ecfc4)"><path fill="#00bf63" d="M 0.972656 0.457031 L 41.390625 0.457031 L 41.390625 40.875 L 0.972656 40.875 Z M 0.972656 0.457031 " fill-opacity="1" fill-rule="nonzero"/></g></g></g></g></svg>